<?xml version="1.0" encoding="UTF-8" standalone="no"?>
<!DOCTYPE svg PUBLIC "-//W3C//DTD SVG 1.1//EN" "http://www.w3.org/Graphics/SVG/1.1/DTD/svg11.dtd">
<svg width="100%" height="100%" viewBox="0 0 2048 2048" version="1.1" xmlns="http://www.w3.org/2000/svg" xmlns:xlink="http://www.w3.org/1999/xlink" xml:space="preserve" xmlns:serif="http://www.serif.com/" style="fill-rule:evenodd;clip-rule:evenodd;stroke-linejoin:round;stroke-miterlimit:2;">
    <g transform="matrix(1,0,0,1.05458,0,-111.786)">
        <rect x="0" y="106" width="2048" height="1942" style="fill:rgb(0,166,188);"/>
    </g>
    <g transform="matrix(17.3258,0,0,17.3258,1512.16,932.944)">
        <path d="M0,10.511C-3.068,7.445 -5.986,4.941 -8.673,3.069C-10.699,1.657 -13.188,0.035 -16.099,-1.765C-8.734,-2.432 -1.019,-4.244 6.884,-7.158C11.658,-8.909 15.688,-11.483 18.862,-14.807C22.12,-18.215 23.769,-21.92 23.769,-25.825C23.769,-29.737 22.329,-33.163 19.489,-36.008C16.703,-38.789 13.138,-40.674 8.888,-41.613C4.743,-42.528 -0.093,-42.991 -5.487,-42.991C-10.873,-42.991 -17.651,-42.364 -25.644,-41.125C-39.722,-38.746 -50.165,-35.745 -56.687,-32.198C-63.184,-28.664 -68.637,-24.88 -72.894,-20.958C-77.284,-16.912 -79.715,-12.718 -80.115,-8.493C-80.123,-8.421 -80.122,-8.345 -80.112,-8.271L-79.848,-6.155C-79.935,-5.675 -79.979,-5.186 -79.979,-4.702C-79.979,-1.161 -78.266,1.958 -74.888,4.568C-71.604,7.107 -68.256,8.491 -65.045,8.679C-62.968,9.028 -62.202,8.306 -61.9,7.699C-61.624,7.144 -61.692,6.67 -61.797,6.369C-61.98,5.848 -62.405,5.436 -63.093,5.116C-63.818,4.78 -65.003,4.294 -66.645,3.665C-68.209,3.068 -69.489,2.509 -70.451,2.005C-71.28,1.572 -72.035,0.833 -72.694,-0.205C-73.353,-1.226 -73.671,-2.233 -73.671,-3.278C-73.671,-8.579 -69.996,-13.701 -62.752,-18.5C-55.96,-22.965 -47.971,-26.465 -39.003,-28.894C-24.172,-32.93 -11.007,-34.975 0.132,-34.975C8.049,-34.975 13.254,-33.698 15.627,-31.149C16.958,-29.819 17.603,-28.475 17.603,-27.035L17.615,-26.323C16.822,-20.858 10.618,-15.72 -0.826,-11.049C-8.721,-7.796 -15.003,-6.147 -19.497,-6.147C-20.933,-6.147 -22.49,-5.585 -24.125,-4.478C-26.376,-2.952 -26.652,-1.057 -26.485,0.262C-26.331,1.503 -25.052,3.88 -16.471,11.286C-13.58,13.808 -11.363,15.931 -9.894,17.58C-5.333,22.963 -3.021,28.126 -3.021,32.925C-3.021,37.676 -5.387,41.562 -10.241,44.8C-14.696,47.712 -20.159,49.189 -26.469,49.189L-27.038,49.189C-34.627,49.189 -39.001,46.145 -40.437,39.786C-40.462,39.709 -40.555,39.364 -40.674,38.157C-40.779,37.115 -40.938,36.313 -41.158,35.703C-41.403,35.034 -41.852,34.397 -42.501,33.802C-43.199,33.169 -44.105,32.819 -45.293,32.755C-46.173,32.755 -47.474,33.259 -50.452,36.982C-53,40.166 -54.227,40.512 -54.635,40.512C-55.062,40.512 -55.464,40.512 -55.464,39.395C-55.464,38.773 -55.279,37.566 -54.404,35.376C-50.936,26.936 -45.119,15.975 -37.115,2.789C-33.283,-3.658 -29.235,-9.174 -25.085,-13.604C-21.083,-17.874 -17.672,-20.04 -15.092,-20.053C-14.979,-20.027 -14.772,-19.947 -14.475,-19.83C-14.066,-19.667 -13.764,-19.593 -13.49,-19.593C-13.047,-19.593 -12.474,-19.97 -12.339,-20.393C-12.249,-20.677 -12.229,-21.026 -12.394,-22.157C-12.852,-23.993 -14.192,-25.418 -16.378,-26.401C-18.43,-27.32 -20.054,-27.768 -21.348,-27.768C-25.032,-27.768 -29.13,-25.488 -33.528,-20.992C-37.947,-16.469 -40.295,-12.866 -40.709,-9.965C-40.724,-9.85 -40.723,-9.734 -40.699,-9.624C-40.642,-9.335 -40.576,-8.792 -40.576,-7.833C-40.576,-7.348 -40.758,-6.362 -41.588,-4.481C-45.906,3.405 -50.36,11.737 -54.835,20.305C-57.124,24.885 -59.196,29.582 -60.992,34.266C-63.476,40.736 -63.763,42.649 -63.763,43.522C-63.763,44.833 -63.737,45.643 -63.683,46.066C-63.552,47.126 -62.363,47.606 -60.62,48.004C-59.056,48.355 -57.936,48.527 -57.194,48.527C-54.709,48.527 -51.978,46.245 -48.681,41.392C-46.89,49.429 -39.954,53.502 -28.034,53.502C-22.239,53.502 -16.678,52.426 -11.5,50.298C-6.295,48.156 -2.163,45.23 0.773,41.615C5.178,36.328 7.412,30.704 7.412,24.889C7.412,23.056 6.957,20.97 6.061,18.688C5.149,16.353 3.167,13.681 0,10.511" style="fill:white;fill-rule:nonzero;"/>
    </g>
</svg>
